<svg xmlns="http://www.w3.org/2000/svg" version="1.1" xmlns:xlink="http://www.w3.org/1999/xlink" xmlns:svgjs="http://svgjs.dev/svgjs" width="1500" height="424" viewBox="0 0 1500 424"><g transform="matrix(1,0,0,1,-0.9090909090908781,-0.025818430349289656)"><svg viewBox="0 0 396 112" data-background-color="#ffffff" preserveAspectRatio="xMidYMid meet" height="424" width="1500" xmlns="http://www.w3.org/2000/svg" xmlns:xlink="http://www.w3.org/1999/xlink"><g id="tight-bounds" transform="matrix(1,0,0,1,0.2400000000000091,0.006819962733771945)"><svg viewBox="0 0 395.52 111.98636007453244" height="111.98636007453244" width="395.52"><g><svg viewBox="0 0 593.5757877181092 168.06328856928704" height="111.98636007453244" width="395.52"><g transform="matrix(1,0,0,1,198.05578771810917,33.74767476407804)"><svg viewBox="0 0 395.52 100.56793904113096" height="100.56793904113096" width="395.52"><g id="textblocktransform"><svg viewBox="0 0 395.52 100.56793904113096" height="100.56793904113096" width="395.52" id="textblock"><g><svg viewBox="0 0 395.52 63.52297384914631" height="63.52297384914631" width="395.52"><g transform="matrix(1,0,0,1,0,0)"><svg width="395.52" viewBox="0.8 -36.50625 231.32999999999998 37.15625" height="63.52297384914631" data-palette-color="#085f63"><path d="M11.05 0.55L11.05 0.55Q10.3 0.55 9.68 0.2 9.05-0.15 8.75-0.95L8.75-0.95 2-22.45Q1.85-22.85 1.53-23.6 1.2-24.35 0.8-24.75L0.8-24.75Q1.15-25.1 1.73-25.4 2.3-25.7 3.15-25.7L3.15-25.7Q4.1-25.7 4.73-25.3 5.35-24.9 5.55-24.05L5.55-24.05 11.7-2.3 16.95-22.55Q17.05-22.85 17.13-23.3 17.2-23.75 17.2-24.15L17.2-24.15Q17.2-24.5 17.15-24.8 17.1-25.1 16.95-25.3L16.95-25.3Q17.55-25.55 18.3-25.68 19.05-25.8 19.65-25.8L19.65-25.8Q20.45-25.8 21.18-25.53 21.9-25.25 22.2-24.5L22.2-24.5 28.05-2.3 33.65-22.55Q33.75-22.9 33.83-23.33 33.9-23.75 33.9-24.15L33.9-24.15Q33.9-24.5 33.85-24.8 33.8-25.1 33.65-25.3L33.65-25.3Q34.1-25.5 34.55-25.6 35-25.7 35.65-25.7L35.65-25.7Q36.85-25.7 37.43-25.25 38-24.8 37.95-23.85L37.95-23.85Q37.95-23.45 37.83-22.83 37.7-22.2 37.5-21.6L37.5-21.6 30.25-0.1Q29.55 0.2 28.9 0.38 28.25 0.55 27.55 0.55L27.55 0.55Q26.8 0.55 26.08 0.2 25.35-0.15 25.15-0.95L25.15-0.95 19.65-21.55 14-0.1Q13.25 0.2 12.53 0.38 11.8 0.55 11.05 0.55ZM62.4 0.5L62.4 0.5Q60.25 0.5 59.15-0.98 58.05-2.45 58.05-5.7L58.05-5.7 58.05-10.15 59-9.7Q58.15-6.7 56.42-4.38 54.7-2.05 52.4-0.75 50.1 0.55 47.4 0.55L47.4 0.55Q44.45 0.55 42.8-1.03 41.15-2.6 41.15-5.25L41.15-5.25Q41.15-7.3 42.22-8.9 43.3-10.5 45.17-11.6 47.05-12.7 49.45-13.35L49.45-13.35Q51.55-13.9 53.77-14.1 56-14.3 57.85-14.2L57.85-14.2 57.85-15.5Q57.85-19.85 56.4-22.05 54.95-24.25 51.5-24.25L51.5-24.25Q50.3-24.25 49.07-23.88 47.85-23.5 47.07-22.65 46.3-21.8 46.3-20.2L46.3-20.2Q46.3-19.2 46.8-18.13 47.3-17.05 48.45-16.65L48.45-16.65Q48-16.1 47.35-15.88 46.7-15.65 46.05-15.65L46.05-15.65Q44.3-15.65 43.3-17 42.3-18.35 42.3-20.05L42.3-20.05Q42.3-23 44.9-24.53 47.5-26.05 51.85-26.05L51.85-26.05Q57.05-26.05 59.47-23.4 61.9-20.75 61.9-15.25L61.9-15.25 61.9-5.25Q61.9-2.6 63.7-2.6L63.7-2.6Q64.1-2.6 64.6-2.85 65.1-3.1 65.35-3.65L65.35-3.65Q65.65-3.25 65.77-2.83 65.9-2.4 65.9-2.1L65.9-2.1Q65.9-1 64.9-0.25 63.9 0.5 62.4 0.5ZM49.2-2.25L49.2-2.25Q50.65-2.25 52.17-3.13 53.7-4 55-5.45 56.3-6.9 57.12-8.75 57.95-10.6 57.95-12.6L57.95-12.6Q56.8-12.7 55.37-12.6 53.95-12.5 52.6-12.25 51.25-12 50.2-11.6L50.2-11.6Q48-10.8 46.75-9.43 45.5-8.05 45.5-6.1L45.5-6.1Q45.5-4.6 46.35-3.38 47.2-2.15 49.2-2.25ZM76.2 0.55L76.2 0.55Q73.8 0.55 72.47-0.93 71.15-2.4 71.15-5L71.15-5 71.15-29.8Q71.15-30.85 71.8-31.43 72.45-32 73.5-32L73.5-32Q74.4-32 74.95-31.68 75.5-31.35 75.8-31.1L75.8-31.1Q75.35-29.7 75.25-27.45 75.15-25.2 75.15-21.35L75.15-21.35 75.15-5.25Q75.15-4 75.75-3.28 76.35-2.55 77.55-2.55L77.55-2.55Q78.25-2.55 78.95-2.8 79.65-3.05 79.9-3.6L79.9-3.6Q80.2-3.2 80.32-2.78 80.45-2.35 80.45-2L80.45-2Q80.45-0.9 79.25-0.18 78.05 0.55 76.2 0.55ZM67.45-23.1L67.45-23.1 67.5-24.25Q67.55-24.8 67.87-25.08 68.2-25.35 68.6-25.35L68.6-25.35 77.2-25.35Q77.4-25.35 78-25.38 78.6-25.4 79.32-25.43 80.05-25.45 80.65-25.48 81.25-25.5 81.45-25.5L81.45-25.5 81.4-24.4Q81.35-23.85 81.05-23.55 80.75-23.25 80.3-23.25L80.3-23.25 70.45-23.25Q69.95-23.25 68.95-23.23 67.95-23.2 67.45-23.1ZM95.79 0.65L95.79 0.65Q90.34 0.65 87.27-2.73 84.19-6.1 84.19-12.55L84.19-12.55Q84.19-18.8 87.32-22.43 90.44-26.05 96.14-26.05L96.14-26.05Q100.29-26.05 102.47-24.28 104.64-22.5 104.64-19.7L104.64-19.7Q104.64-17.95 103.74-16.9 102.84-15.85 101.34-15.85L101.34-15.85Q100.69-15.85 100.04-16.05 99.39-16.25 98.99-16.8L98.99-16.8Q99.84-17.15 100.24-18 100.64-18.85 100.64-20L100.64-20Q100.64-21.5 99.97-22.45 99.29-23.4 98.19-23.85 97.09-24.3 95.79-24.3L95.79-24.3Q92.54-24.3 90.49-21.48 88.44-18.65 88.44-13.15L88.44-13.15Q88.44-9.1 89.59-6.65 90.74-4.2 92.64-3.15 94.54-2.1 96.84-2.1L96.84-2.1Q98.64-2.1 100.14-2.68 101.64-3.25 102.72-4.42 103.79-5.6 104.19-7.35L104.19-7.35Q104.69-7.15 104.89-6.58 105.09-6 104.69-4.75L104.69-4.75Q103.89-2.1 101.49-0.73 99.09 0.65 95.79 0.65ZM113.69 0.55L113.69 0.55Q112.69 0.55 112.04-0.1 111.39-0.75 111.39-1.85L111.39-1.85 111.34-34.3Q111.34-35.35 111.89-35.9 112.44-36.45 113.34-36.5L113.34-36.5Q114.29-36.55 114.99-36.2 115.69-35.85 115.99-35.6L115.99-35.6Q115.59-34.25 115.47-32.43 115.34-30.6 115.29-27.8L115.29-27.8 115.24-17.35 114.39-16.45Q114.64-19.45 115.87-21.6 117.09-23.75 119.04-24.9 120.99-26.05 123.49-26.05L123.49-26.05Q127.64-26.05 129.57-23.4 131.49-20.75 131.49-15.65L131.49-15.65 131.54-5.7Q131.54-4.4 131.67-2.93 131.79-1.45 132.14-0.35L132.14-0.35Q131.79 0 131.22 0.28 130.64 0.55 129.84 0.55L129.84 0.55Q128.84 0.55 128.22-0.05 127.59-0.65 127.59-1.65L127.59-1.65 127.54-15.15Q127.54-19.4 126.39-21.63 125.24-23.85 122.34-23.85L122.34-23.85Q121.14-23.85 119.89-23.2 118.64-22.55 117.59-21.18 116.54-19.8 115.92-17.55 115.29-15.3 115.29-12.05L115.29-12.05Q115.29-9.05 115.29-7.1 115.29-5.15 115.37-3.9 115.44-2.65 115.57-1.85 115.69-1.05 115.99-0.35L115.99-0.35Q115.69-0.1 115.12 0.23 114.54 0.55 113.69 0.55ZM145.14 0.55L145.14 0.55Q142.74 0.55 141.41-0.93 140.09-2.4 140.09-5L140.09-5 140.09-29.8Q140.09-30.85 140.74-31.43 141.39-32 142.44-32L142.44-32Q143.34-32 143.89-31.68 144.44-31.35 144.74-31.1L144.74-31.1Q144.29-29.7 144.19-27.45 144.09-25.2 144.09-21.35L144.09-21.35 144.09-5.25Q144.09-4 144.69-3.28 145.29-2.55 146.49-2.55L146.49-2.55Q147.19-2.55 147.89-2.8 148.59-3.05 148.84-3.6L148.84-3.6Q149.14-3.2 149.26-2.78 149.39-2.35 149.39-2L149.39-2Q149.39-0.9 148.19-0.18 146.99 0.55 145.14 0.55ZM136.39-23.1L136.39-23.1 136.44-24.25Q136.49-24.8 136.81-25.08 137.14-25.35 137.54-25.35L137.54-25.35 146.14-25.35Q146.34-25.35 146.94-25.38 147.54-25.4 148.26-25.43 148.99-25.45 149.59-25.48 150.19-25.5 150.39-25.5L150.39-25.5 150.34-24.4Q150.29-23.85 149.99-23.55 149.69-23.25 149.24-23.25L149.24-23.25 139.39-23.25Q138.89-23.25 137.89-23.23 136.89-23.2 136.39-23.1ZM158.64-30.15L158.64-30.15Q157.54-30.15 156.74-30.95 155.94-31.75 155.94-32.85L155.94-32.85Q155.94-34 156.74-34.77 157.54-35.55 158.64-35.55L158.64-35.55Q159.79-35.55 160.56-34.77 161.34-34 161.34-32.85L161.34-32.85Q161.34-31.75 160.56-30.95 159.79-30.15 158.64-30.15ZM160.79-23.85L160.84-5.7Q160.84-4.25 160.96-2.85 161.09-1.45 161.49-0.35L161.49-0.35Q161.19-0.1 160.61 0.23 160.04 0.55 159.19 0.55L159.19 0.55Q158.24 0.55 157.59-0.05 156.94-0.65 156.94-1.65L156.94-1.65 156.89-19.8Q156.89-21.25 156.76-22.65 156.64-24.05 156.24-25.15L156.24-25.15Q156.54-25.4 157.11-25.73 157.69-26.05 158.54-26.05L158.54-26.05Q159.54-26.05 160.16-25.48 160.79-24.9 160.79-23.85L160.79-23.85ZM205.03-15.65L205.03-5.7Q205.03-4.4 205.16-2.93 205.28-1.45 205.68-0.35L205.68-0.35Q205.28 0 204.73 0.28 204.18 0.55 203.38 0.55L203.38 0.55Q202.38 0.55 201.73-0.05 201.08-0.65 201.08-1.65L201.08-1.65 201.08-15.15Q201.08-17.8 200.68-19.75 200.28-21.7 199.26-22.78 198.23-23.85 196.33-23.85L196.33-23.85Q195.23-23.85 194.08-23.23 192.93-22.6 191.96-21.3 190.98-20 190.33-17.85 189.68-15.7 189.63-12.7L189.63-12.7 189.68-5.7Q189.68-4.4 189.81-2.93 189.93-1.45 190.28-0.35L190.28-0.35Q189.93 0 189.38 0.28 188.83 0.55 188.03 0.55L188.03 0.55Q187.08 0.55 186.46-0.05 185.83-0.65 185.83-1.65L185.83-1.65 185.78-15.15Q185.78-19.4 184.76-21.63 183.73-23.85 180.88-23.85L180.88-23.85Q179.73-23.85 178.58-23.2 177.43-22.55 176.51-21.13 175.58-19.7 174.98-17.4 174.38-15.1 174.38-11.75L174.38-11.75Q174.38-8.85 174.38-6.93 174.38-5 174.46-3.83 174.53-2.65 174.66-1.85 174.78-1.05 175.08-0.35L175.08-0.35Q174.78-0.1 174.23 0.23 173.68 0.55 172.78 0.55L172.78 0.55Q171.78 0.55 171.13-0.1 170.48-0.75 170.48-1.85L170.48-1.85 170.43-20.25Q170.43-21.55 169.98-22.23 169.53-22.9 168.68-22.9L168.68-22.9Q168.23-22.9 167.81-22.63 167.38-22.35 167.13-21.85L167.13-21.85Q166.58-22.55 166.58-23.4L166.58-23.4Q166.58-24.6 167.48-25.3 168.38-26 169.68-26L169.68-26Q171.68-26 172.83-24.63 173.98-23.25 173.98-20.45L173.98-20.45 173.98-17.1 173.53-17.85Q174.23-21.6 176.48-23.83 178.73-26.05 182.03-26.05L182.03-26.05Q185.63-26.05 187.43-23.93 189.23-21.8 189.53-17.75L189.53-17.75 188.93-17.95Q189.33-20.4 190.51-22.23 191.68-24.05 193.46-25.05 195.23-26.05 197.43-26.05L197.43-26.05Q201.38-26.05 203.21-23.4 205.03-20.75 205.03-15.65L205.03-15.65ZM222.78 0.65L222.78 0.65Q217.38 0.65 214.23-2.73 211.08-6.1 211.08-12.55L211.08-12.55Q211.08-18.8 214.16-22.43 217.23-26.05 222.98-26.05L222.98-26.05Q225.68-26.05 227.73-25.23 229.78-24.4 230.96-22.8 232.13-21.2 232.13-18.85L232.13-18.85Q232.13-15.1 229.11-13.18 226.08-11.25 220.78-11.25L220.78-11.25Q218.68-11.25 216.78-11.43 214.88-11.6 212.93-12L212.93-12 213.03-13.65Q214.28-13.4 215.96-13.25 217.63-13.1 219.23-13.05L219.23-13.05Q220.98-13.05 222.56-13.35 224.13-13.65 225.33-14.35 226.53-15.05 227.21-16.28 227.88-17.5 227.88-19.35L227.88-19.35Q227.88-21.3 227.13-22.35 226.38-23.4 225.23-23.83 224.08-24.25 222.83-24.25L222.83-24.25Q219.48-24.25 217.41-21.43 215.33-18.6 215.33-13.05L215.33-13.05Q215.33-8.9 216.46-6.53 217.58-4.15 219.48-3.13 221.38-2.1 223.73-2.1L223.73-2.1Q226.43-2.1 228.48-3.23 230.53-4.35 231.23-6.45L231.23-6.45Q231.73-6.25 231.96-5.73 232.18-5.2 231.68-3.95L231.68-3.95Q230.73-1.7 228.33-0.53 225.93 0.65 222.78 0.65Z" opacity="1" transform="matrix(1,0,0,1,0,0)" fill="#085f63" class="wordmark-text-0" data-fill-palette-color="primary" id="text-0"></path></svg></g></svg></g><g transform="matrix(1,0,0,1,0,78.51922342355738)"><svg viewBox="0 0 375.74399999999997 22.048715617573574" height="22.048715617573574" width="375.74399999999997"><g transform="matrix(1,0,0,1,0,0)"><svg width="375.74399999999997" viewBox="4.15 -36.5 820.46 48.15" height="22.048715617573574" data-palette-color="#49beb7"><path d="M18.1-18.35Q21.95-17.75 23.98-15.48 26-13.2 26-9.4L26-9.4Q26-4.3 22.5-2.15 19 0 12 0L12 0 7.2 0Q6.15 0 5.5-0.6 4.85-1.2 4.8-2.25L4.8-2.25 4.8-28.85Q4.8-30.05 4.65-31.63 4.5-33.2 4.15-34.2L4.15-34.2Q6.25-35.3 11.3-35.3L11.3-35.3Q17.75-35.3 21-33.27 24.25-31.25 24.25-26.8L24.25-26.8Q24.25-23.7 22.65-21.48 21.05-19.25 18.1-18.35L18.1-18.35ZM11.1-33.5Q9.35-33.5 8.85-33.4L8.85-33.4 8.85-19.1 13.05-19.1Q16.15-19.05 18.07-21 20-22.95 20-26.55L20-26.55Q20-30.15 17.93-31.83 15.85-33.5 11.1-33.5L11.1-33.5ZM12.15-1.85Q16.9-1.85 19.28-3.63 21.65-5.4 21.65-9.35L21.65-9.35Q21.65-13.75 19.23-15.5 16.8-17.25 12.15-17.25L12.15-17.25 8.85-17.25 8.85-1.85 12.15-1.85ZM42.6 0.65Q37.2 0.65 34.17-2.88 31.15-6.4 31.15-12.7L31.15-12.7Q31.15-19 34.17-22.53 37.2-26.05 42.6-26.05L42.6-26.05Q48.05-26.05 51.07-22.53 54.1-19 54.1-12.7L54.1-12.7Q54.1-6.4 51.07-2.88 48.05 0.65 42.6 0.65L42.6 0.65ZM42.6-1.15Q46.1-1.15 47.95-4.13 49.8-7.1 49.8-12.7L49.8-12.7Q49.8-18.3 47.95-21.25 46.1-24.2 42.6-24.2L42.6-24.2Q39.1-24.2 37.25-21.25 35.4-18.3 35.4-12.7L35.4-12.7Q35.4-7.1 37.25-4.13 39.1-1.15 42.6-1.15L42.6-1.15ZM69.95 0.65Q64.55 0.65 61.52-2.88 58.5-6.4 58.5-12.7L58.5-12.7Q58.5-19 61.52-22.53 64.55-26.05 69.95-26.05L69.95-26.05Q75.4-26.05 78.42-22.53 81.45-19 81.45-12.7L81.45-12.7Q81.45-6.4 78.42-2.88 75.4 0.65 69.95 0.65L69.95 0.65ZM69.95-1.15Q73.45-1.15 75.3-4.13 77.15-7.1 77.15-12.7L77.15-12.7Q77.15-18.3 75.3-21.25 73.45-24.2 69.95-24.2L69.95-24.2Q66.45-24.2 64.59-21.25 62.75-18.3 62.75-12.7L62.75-12.7Q62.75-7.1 64.59-4.13 66.45-1.15 69.95-1.15L69.95-1.15ZM94.84 0.65Q90.19 0.65 87.87-1.03 85.54-2.7 85.54-5.4L85.54-5.4Q85.54-6.65 86.14-7.43 86.74-8.2 88.04-8.2L88.04-8.2Q88.54-8.2 88.84-8.15L88.84-8.15Q88.69-7.55 88.69-6.95L88.69-6.95Q88.69-6.4 88.74-6.05L88.74-6.05Q88.84-3.85 90.57-2.55 92.29-1.25 95.19-1.25L95.19-1.25Q98.04-1.25 99.74-2.25 101.44-3.25 101.44-5.2L101.44-5.2Q101.44-7 100.14-8.05 98.84-9.1 96.04-10.35L96.04-10.35 94.44-11.1Q91.64-12.4 90.17-13.3 88.69-14.2 87.62-15.75 86.54-17.3 86.54-19.65L86.54-19.65Q86.54-22.9 89.09-24.5 91.64-26.1 95.54-26.1L95.54-26.1Q99.64-26.1 101.94-24.78 104.24-23.45 104.24-21.1L104.24-21.1Q104.24-19 102.39-18.8L102.39-18.8Q101.89-18.7 101.74-18.7L101.74-18.7Q101.44-18.7 100.94-18.8L100.94-18.8Q101.04-19.4 101.04-19.8L101.04-19.8Q101.04-20.45 100.89-20.9L100.89-20.9Q100.69-22.55 99.27-23.4 97.84-24.25 95.39-24.25L95.39-24.25Q93.14-24.25 91.69-23.43 90.24-22.6 90.24-20.8L90.24-20.8Q90.24-19.3 91.09-18.23 91.94-17.15 93.12-16.48 94.29-15.8 96.69-14.65L96.69-14.65 97.79-14.15Q100.24-13 101.72-12.13 103.19-11.25 104.22-9.85 105.24-8.45 105.24-6.5L105.24-6.5Q105.24-3.55 102.79-1.45 100.34 0.65 94.84 0.65L94.84 0.65ZM117.84-25.35Q118.64-25.35 119.97-25.4 121.29-25.45 122.09-25.5L122.09-25.5 122.04-24.4Q121.99-23.9 121.69-23.58 121.39-23.25 120.94-23.25L120.94-23.25 115.79-23.25 115.79-21.35 115.79-5.25Q115.79-3.95 116.39-3.25 116.99-2.55 118.19-2.55L118.19-2.55Q118.94-2.55 119.62-2.83 120.29-3.1 120.54-3.6L120.54-3.6Q121.09-2.85 121.09-2L121.09-2Q121.09-0.85 119.89-0.15 118.69 0.55 116.84 0.55L116.84 0.55Q114.49 0.55 113.14-0.93 111.79-2.4 111.79-5L111.79-5 111.79-23.25 111.09-23.25Q109.04-23.25 108.09-23.1L108.09-23.1 108.14-24.25Q108.19-25.35 109.24-25.35L109.24-25.35 111.79-25.35 111.79-29.8Q111.79-30.85 112.44-31.43 113.09-32 114.14-32L114.14-32Q115.39-32 116.44-31.1L116.44-31.1Q115.89-29.4 115.84-25.35L115.84-25.35 117.84-25.35ZM145.99 0.55Q144.24 0.55 143.69-0.95L143.69-0.95 136.94-22.45Q136.84-22.65 136.51-23.48 136.19-24.3 135.74-24.75L135.74-24.75Q136.69-25.7 138.09-25.7L138.09-25.7Q139.04-25.7 139.66-25.28 140.29-24.85 140.49-24.05L140.49-24.05 146.64-2.3 151.89-22.55Q152.14-23.7 152.14-24.15L152.14-24.15Q152.14-24.8 151.89-25.3L151.89-25.3Q153.04-25.8 154.59-25.8L154.59-25.8Q156.64-25.8 157.14-24.5L157.14-24.5 162.99-2.3 168.59-22.55Q168.84-23.8 168.84-24.15L168.84-24.15Q168.84-24.8 168.59-25.3L168.59-25.3Q169.54-25.7 170.59-25.7L170.59-25.7Q172.94-25.7 172.89-23.85L172.89-23.85Q172.89-22.75 172.44-21.6L172.44-21.6 165.19-0.1Q163.84 0.55 162.49 0.55L162.49 0.55Q161.64 0.55 160.96 0.18 160.29-0.2 160.09-0.95L160.09-0.95 154.59-21.55 148.94-0.1Q147.59 0.55 145.99 0.55L145.99 0.55ZM200.43-3.65Q200.98-2.9 200.98-2.1L200.98-2.1Q200.98-1 199.96-0.25 198.93 0.5 197.48 0.5L197.48 0.5Q195.33 0.5 194.23-1 193.13-2.5 193.13-5.7L193.13-5.7 193.13-7.15Q191.48-3.6 188.66-1.53 185.83 0.55 182.48 0.55L182.48 0.55Q179.58 0.55 177.91-1.03 176.23-2.6 176.23-5.25L176.23-5.25Q176.23-8.2 178.48-10.25 180.73-12.3 184.53-13.35L184.53-13.35Q187.88-14.25 191.48-14.25L191.48-14.25Q192.48-14.25 192.93-14.2L192.93-14.2 192.93-15.5Q192.93-19.95 191.46-22.1 189.98-24.25 186.58-24.25L186.58-24.25Q184.38-24.25 182.88-23.3 181.38-22.35 181.38-20.2L181.38-20.2Q181.38-19.05 181.91-18.05 182.43-17.05 183.53-16.65L183.53-16.65Q182.73-15.65 181.13-15.65L181.13-15.65Q179.48-15.65 178.43-16.98 177.38-18.3 177.38-20.05L177.38-20.05Q177.38-22.95 179.93-24.5 182.48-26.05 186.93-26.05L186.93-26.05Q192.08-26.05 194.53-23.4 196.98-20.75 196.98-15.25L196.98-15.25 196.98-5.25Q196.98-2.6 198.78-2.6L198.78-2.6Q199.18-2.6 199.68-2.88 200.18-3.15 200.43-3.65L200.43-3.65ZM184.08-2.25Q186.08-2.25 188.16-3.73 190.23-5.2 191.61-7.6 192.98-10 193.03-12.6L193.03-12.6 191.88-12.65Q190.13-12.65 188.33-12.38 186.53-12.1 185.28-11.6L185.28-11.6Q183.08-10.8 181.83-9.4 180.58-8 180.58-6.1L180.58-6.1Q180.58-4.45 181.43-3.35 182.28-2.25 184.08-2.25L184.08-2.25ZM212.28-25.35Q213.08-25.35 214.41-25.4 215.73-25.45 216.53-25.5L216.53-25.5 216.48-24.4Q216.43-23.9 216.13-23.58 215.83-23.25 215.38-23.25L215.38-23.25 210.23-23.25 210.23-21.35 210.23-5.25Q210.23-3.95 210.83-3.25 211.43-2.55 212.63-2.55L212.63-2.55Q213.38-2.55 214.06-2.83 214.73-3.1 214.98-3.6L214.98-3.6Q215.53-2.85 215.53-2L215.53-2Q215.53-0.85 214.33-0.15 213.13 0.55 211.28 0.55L211.28 0.55Q208.93 0.55 207.58-0.93 206.23-2.4 206.23-5L206.23-5 206.23-23.25 205.53-23.25Q203.48-23.25 202.53-23.1L202.53-23.1 202.58-24.25Q202.63-25.35 203.68-25.35L203.68-25.35 206.23-25.35 206.23-29.8Q206.23-30.85 206.88-31.43 207.53-32 208.58-32L208.58-32Q209.83-32 210.88-31.1L210.88-31.1Q210.33-29.4 210.28-25.35L210.28-25.35 212.28-25.35ZM232.23 0.65Q226.73 0.65 223.68-2.75 220.63-6.15 220.63-12.55L220.63-12.55Q220.63-18.85 223.75-22.45 226.88-26.05 232.58-26.05L232.58-26.05Q236.63-26.05 238.85-24.3 241.08-22.55 241.08-19.7L241.08-19.7Q241.08-17.95 240.15-16.9 239.23-15.85 237.78-15.85L237.78-15.85Q236.13-15.85 235.43-16.8L235.43-16.8Q237.08-17.45 237.08-20L237.08-20Q237.08-22.15 235.7-23.23 234.33-24.3 232.23-24.3L232.23-24.3Q228.88-24.3 226.88-21.4 224.88-18.5 224.88-13.15L224.88-13.15Q224.88-7.4 227.18-4.75 229.48-2.1 233.28-2.1L233.28-2.1Q236.03-2.1 238.03-3.45 240.03-4.8 240.63-7.35L240.63-7.35Q241.38-7.1 241.38-6.1L241.38-6.1Q241.38-5.45 241.13-4.75L241.13-4.75Q240.33-2.15 237.95-0.75 235.58 0.65 232.23 0.65L232.23 0.65ZM267.98-5.7Q267.98-2.1 268.58-0.35L268.58-0.35Q267.58 0.55 266.28 0.55L266.28 0.55Q265.28 0.55 264.65-0.05 264.03-0.65 264.03-1.65L264.03-1.65 263.98-15.15Q263.98-19.55 262.8-21.7 261.63-23.85 258.78-23.85L258.78-23.85Q257.03-23.85 255.4-22.63 253.78-21.4 252.75-18.75 251.73-16.1 251.73-12.05L251.73-12.05Q251.73-5.6 251.83-3.65 251.93-1.7 252.43-0.35L252.43-0.35Q251.38 0.55 250.13 0.55L250.13 0.55Q249.08 0.55 248.45-0.1 247.83-0.75 247.83-1.85L247.83-1.85 247.78-34.3Q247.78-35.4 248.38-35.95 248.98-36.5 250.03-36.5L250.03-36.5Q250.78-36.5 251.43-36.23 252.08-35.95 252.43-35.6L252.43-35.6Q252.03-34.35 251.9-32.63 251.78-30.9 251.73-27.8L251.73-27.8 251.68-20.25Q252.78-23 254.93-24.53 257.08-26.05 259.93-26.05L259.93-26.05Q264.03-26.05 265.98-23.43 267.93-20.8 267.93-15.65L267.93-15.65 267.98-5.7ZM293.52-25.35Q294.32-25.35 295.65-25.4 296.97-25.45 297.77-25.5L297.77-25.5 297.72-24.4Q297.67-23.9 297.37-23.58 297.07-23.25 296.62-23.25L296.62-23.25 291.47-23.25 291.47-21.35 291.47-5.25Q291.47-3.95 292.07-3.25 292.67-2.55 293.87-2.55L293.87-2.55Q294.62-2.55 295.3-2.83 295.97-3.1 296.22-3.6L296.22-3.6Q296.77-2.85 296.77-2L296.77-2Q296.77-0.85 295.57-0.15 294.37 0.55 292.52 0.55L292.52 0.55Q290.17 0.55 288.82-0.93 287.47-2.4 287.47-5L287.47-5 287.47-23.25 286.77-23.25Q284.72-23.25 283.77-23.1L283.77-23.1 283.82-24.25Q283.87-25.35 284.92-25.35L284.92-25.35 287.47-25.35 287.47-29.8Q287.47-30.85 288.12-31.43 288.77-32 289.82-32L289.82-32Q291.07-32 292.12-31.1L292.12-31.1Q291.57-29.4 291.52-25.35L291.52-25.35 293.52-25.35ZM306.02-30Q304.92-30 304.12-30.8 303.32-31.6 303.32-32.7L303.32-32.7Q303.32-33.85 304.12-34.63 304.92-35.4 306.02-35.4L306.02-35.4Q307.17-35.4 307.94-34.63 308.72-33.85 308.72-32.7L308.72-32.7Q308.72-31.6 307.94-30.8 307.17-30 306.02-30L306.02-30ZM308.22-5.7Q308.22-2.05 308.87-0.35L308.87-0.35Q307.82 0.55 306.57 0.55L306.57 0.55Q305.57 0.55 304.94-0.05 304.32-0.65 304.32-1.65L304.32-1.65 304.27-19.8Q304.27-23.25 303.62-25.15L303.62-25.15Q304.67-26.05 305.92-26.05L305.92-26.05Q306.92-26.05 307.54-25.48 308.17-24.9 308.17-23.85L308.17-23.85 308.22-5.7ZM352.42-5.7Q352.42-2.25 353.07-0.35L353.07-0.35Q351.97 0.55 350.77 0.55L350.77 0.55Q349.77 0.55 349.12-0.05 348.47-0.65 348.47-1.65L348.47-1.65 348.47-15.15Q348.47-19.45 347.42-21.65 346.37-23.85 343.72-23.85L343.72-23.85Q342.12-23.85 340.62-22.7 339.12-21.55 338.09-19.03 337.06-16.5 337.02-12.7L337.02-12.7 337.06-5.7Q337.06-2.1 337.67-0.35L337.67-0.35Q336.67 0.55 335.42 0.55L335.42 0.55Q334.42 0.55 333.81-0.05 333.22-0.65 333.22-1.65L333.22-1.65 333.17-15.15Q333.17-19.6 332.06-21.73 330.97-23.85 328.27-23.85L328.27-23.85Q326.62-23.85 325.14-22.63 323.67-21.4 322.72-18.68 321.77-15.95 321.77-11.75L321.77-11.75Q321.77-5.45 321.87-3.55 321.97-1.65 322.47-0.35L322.47-0.35Q321.42 0.55 320.17 0.55L320.17 0.55Q319.12 0.55 318.49-0.1 317.87-0.75 317.87-1.85L317.87-1.85 317.81-20.25Q317.81-21.55 317.37-22.23 316.92-22.9 316.06-22.9L316.06-22.9Q315.62-22.9 315.17-22.63 314.72-22.35 314.52-21.85L314.52-21.85Q313.97-22.55 313.97-23.4L313.97-23.4Q313.97-24.55 314.87-25.28 315.77-26 317.06-26L317.06-26Q319.12-26 320.24-24.58 321.37-23.15 321.37-20.45L321.37-20.45 321.37-19.65Q322.37-22.65 324.47-24.35 326.56-26.05 329.42-26.05L329.42-26.05Q335.52-26.05 336.67-19.55L336.67-19.55Q337.56-22.6 339.72-24.33 341.87-26.05 344.81-26.05L344.81-26.05Q348.72-26.05 350.56-23.43 352.42-20.8 352.42-15.65L352.42-15.65 352.42-5.7ZM378.61-6.45Q379.36-6.2 379.36-5.3L379.36-5.3Q379.36-4.8 379.06-3.95L379.06-3.95Q378.11-1.75 375.74-0.55 373.36 0.65 370.16 0.65L370.16 0.65Q364.66 0.65 361.56-2.78 358.46-6.2 358.46-12.55L358.46-12.55Q358.46-18.85 361.54-22.45 364.61-26.05 370.36-26.05L370.36-26.05Q374.51-26.05 377.01-24.18 379.51-22.3 379.51-18.85L379.51-18.85Q379.51-15.15 376.51-13.2 373.51-11.25 368.16-11.25L368.16-11.25Q365.21-11.25 362.76-11.6L362.76-11.6Q363.06-6.55 365.29-4.33 367.51-2.1 371.11-2.1L371.11-2.1Q373.86-2.1 375.86-3.23 377.86-4.35 378.61-6.45L378.61-6.45ZM370.21-24.25Q366.81-24.25 364.79-21.43 362.76-18.6 362.71-13.3L362.71-13.3Q365.11-13.1 366.61-13.05L366.61-13.05Q370.61-13.05 372.94-14.48 375.26-15.9 375.26-19.35L375.26-19.35Q375.26-22 373.81-23.13 372.36-24.25 370.21-24.25L370.21-24.25ZM388.06 4.95Q387.26 4.85 386.56 4.05L386.56 4.05Q388.11 2.25 388.11 0.65L388.11 0.65Q388.11-0.55 387.49-1.13 386.86-1.7 385.81-2.05L385.81-2.05Q385.81-3.05 386.59-3.9 387.36-4.75 388.61-4.75L388.61-4.75Q389.81-4.75 390.64-3.93 391.46-3.1 391.46-1.3L391.46-1.3Q391.46 2 388.06 4.95L388.06 4.95ZM420.01 0.65Q417.16 0.65 414.46-0.15 411.76-0.95 410.11-2.7L410.11-2.7 410.11-34.3Q410.11-35.3 410.73-35.9 411.36-36.5 412.31-36.5L412.31-36.5Q413.71-36.5 414.76-35.6L414.76-35.6Q414.41-34.25 414.26-32.1 414.11-29.95 414.11-28.3L414.11-28.3 414.11-19.75Q415.06-22.55 417.31-24.3 419.56-26.05 422.61-26.05L422.61-26.05Q431.26-26.05 431.26-13.8L431.26-13.8Q431.26-7.25 428.51-3.3 425.76 0.65 420.01 0.65L420.01 0.65ZM419.66-1.35Q423.91-1.35 425.48-4.88 427.06-8.4 427.06-13.8L427.06-13.8Q427.06-18.85 425.73-21.25 424.41-23.65 421.86-23.65L421.86-23.65Q419.21-23.65 417.46-21.83 415.71-20 414.91-17.25 414.11-14.5 414.11-11.65L414.11-11.65 414.11-3.3Q414.81-2.5 416.41-1.93 418.01-1.35 419.66-1.35L419.66-1.35ZM447.1 0.65Q441.7 0.65 438.68-2.88 435.65-6.4 435.65-12.7L435.65-12.7Q435.65-19 438.68-22.53 441.7-26.05 447.1-26.05L447.1-26.05Q452.55-26.05 455.58-22.53 458.6-19 458.6-12.7L458.6-12.7Q458.6-6.4 455.58-2.88 452.55 0.65 447.1 0.65L447.1 0.65ZM447.1-1.15Q450.6-1.15 452.45-4.13 454.3-7.1 454.3-12.7L454.3-12.7Q454.3-18.3 452.45-21.25 450.6-24.2 447.1-24.2L447.1-24.2Q443.6-24.2 441.75-21.25 439.9-18.3 439.9-12.7L439.9-12.7Q439.9-7.1 441.75-4.13 443.6-1.15 447.1-1.15L447.1-1.15ZM474.45 0.65Q469.05 0.65 466.03-2.88 463-6.4 463-12.7L463-12.7Q463-19 466.03-22.53 469.05-26.05 474.45-26.05L474.45-26.05Q479.9-26.05 482.93-22.53 485.95-19 485.95-12.7L485.95-12.7Q485.95-6.4 482.93-2.88 479.9 0.65 474.45 0.65L474.45 0.65ZM474.45-1.15Q477.95-1.15 479.8-4.13 481.65-7.1 481.65-12.7L481.65-12.7Q481.65-18.3 479.8-21.25 477.95-24.2 474.45-24.2L474.45-24.2Q470.95-24.2 469.1-21.25 467.25-18.3 467.25-12.7L467.25-12.7Q467.25-7.1 469.1-4.13 470.95-1.15 474.45-1.15L474.45-1.15ZM499.35 0.65Q494.7 0.65 492.37-1.03 490.05-2.7 490.05-5.4L490.05-5.4Q490.05-6.65 490.65-7.43 491.25-8.2 492.55-8.2L492.55-8.2Q493.05-8.2 493.35-8.15L493.35-8.15Q493.2-7.55 493.2-6.95L493.2-6.95Q493.2-6.4 493.25-6.05L493.25-6.05Q493.35-3.85 495.07-2.55 496.8-1.25 499.7-1.25L499.7-1.25Q502.55-1.25 504.25-2.25 505.95-3.25 505.95-5.2L505.95-5.2Q505.95-7 504.65-8.05 503.35-9.1 500.55-10.35L500.55-10.35 498.95-11.1Q496.15-12.4 494.67-13.3 493.2-14.2 492.12-15.75 491.05-17.3 491.05-19.65L491.05-19.65Q491.05-22.9 493.6-24.5 496.15-26.1 500.05-26.1L500.05-26.1Q504.15-26.1 506.45-24.78 508.75-23.45 508.75-21.1L508.75-21.1Q508.75-19 506.9-18.8L506.9-18.8Q506.4-18.7 506.25-18.7L506.25-18.7Q505.95-18.7 505.45-18.8L505.45-18.8Q505.55-19.4 505.55-19.8L505.55-19.8Q505.55-20.45 505.4-20.9L505.4-20.9Q505.2-22.55 503.77-23.4 502.35-24.25 499.9-24.25L499.9-24.25Q497.65-24.25 496.2-23.43 494.75-22.6 494.75-20.8L494.75-20.8Q494.75-19.3 495.6-18.23 496.45-17.15 497.62-16.48 498.8-15.8 501.2-14.65L501.2-14.65 502.3-14.15Q504.75-13 506.22-12.13 507.7-11.25 508.72-9.85 509.75-8.45 509.75-6.5L509.75-6.5Q509.75-3.55 507.3-1.45 504.85 0.65 499.35 0.65L499.35 0.65ZM522.35-25.35Q523.15-25.35 524.47-25.4 525.8-25.45 526.6-25.5L526.6-25.5 526.55-24.4Q526.5-23.9 526.2-23.58 525.9-23.25 525.45-23.25L525.45-23.25 520.3-23.25 520.3-21.35 520.3-5.25Q520.3-3.95 520.9-3.25 521.5-2.55 522.7-2.55L522.7-2.55Q523.45-2.55 524.12-2.83 524.8-3.1 525.05-3.6L525.05-3.6Q525.6-2.85 525.6-2L525.6-2Q525.6-0.85 524.4-0.15 523.2 0.55 521.35 0.55L521.35 0.55Q519 0.55 517.65-0.93 516.3-2.4 516.3-5L516.3-5 516.3-23.25 515.6-23.25Q513.55-23.25 512.6-23.1L512.6-23.1 512.65-24.25Q512.7-25.35 513.75-25.35L513.75-25.35 516.3-25.35 516.3-29.8Q516.3-30.85 516.95-31.43 517.6-32 518.65-32L518.65-32Q519.9-32 520.95-31.1L520.95-31.1Q520.4-29.4 520.35-25.35L520.35-25.35 522.35-25.35ZM561.79-6.45Q562.54-6.2 562.54-5.3L562.54-5.3Q562.54-4.8 562.24-3.95L562.24-3.95Q561.29-1.75 558.92-0.55 556.54 0.65 553.34 0.65L553.34 0.65Q547.84 0.65 544.74-2.78 541.64-6.2 541.64-12.55L541.64-12.55Q541.64-18.85 544.72-22.45 547.79-26.05 553.54-26.05L553.54-26.05Q557.69-26.05 560.19-24.18 562.69-22.3 562.69-18.85L562.69-18.85Q562.69-15.15 559.69-13.2 556.69-11.25 551.34-11.25L551.34-11.25Q548.39-11.25 545.94-11.6L545.94-11.6Q546.24-6.55 548.47-4.33 550.69-2.1 554.29-2.1L554.29-2.1Q557.04-2.1 559.04-3.23 561.04-4.35 561.79-6.45L561.79-6.45ZM553.39-24.25Q549.99-24.25 547.97-21.43 545.94-18.6 545.89-13.3L545.89-13.3Q548.29-13.1 549.79-13.05L549.79-13.05Q553.79-13.05 556.12-14.48 558.44-15.9 558.44-19.35L558.44-19.35Q558.44-22 556.99-23.13 555.54-24.25 553.39-24.25L553.39-24.25ZM589.84-5.7Q589.94-1.9 590.49-0.35L590.49-0.35Q589.49 0.55 588.19 0.55L588.19 0.55Q587.14 0.55 586.49-0.05 585.84-0.65 585.84-1.65L585.84-1.65 585.84-15.15Q585.79-19.5 584.61-21.6 583.44-23.7 580.64-23.7L580.64-23.7Q578.89-23.7 577.26-22.5 575.64-21.3 574.59-18.7 573.54-16.1 573.54-12.05L573.54-12.05Q573.54-5.6 573.64-3.65 573.74-1.7 574.24-0.35L574.24-0.35Q573.19 0.55 571.94 0.55L571.94 0.55Q570.89 0.55 570.24-0.1 569.59-0.75 569.59-1.85L569.59-1.85 569.59-20.3Q569.54-21.7 569.21-22.3 568.89-22.9 568.19-22.9L568.19-22.9Q567.24-22.9 566.89-22.1L566.89-22.1Q566.29-22.95 566.29-23.7L566.29-23.7Q566.29-24.75 567.09-25.38 567.89-26 569.29-26L569.29-26Q571.19-26 572.19-24.7 573.19-23.4 573.19-20.85L573.19-20.85 573.19-19.85Q574.24-22.8 576.49-24.43 578.74-26.05 581.79-26.05L581.79-26.05Q589.84-26.05 589.84-15.65L589.84-15.65 589.84-5.7ZM604.58 11.65Q600.93 11.65 598.51 10.13 596.08 8.6 596.08 5.65L596.08 5.65Q596.08 4 596.96 2.98 597.83 1.95 599.18 1.95L599.18 1.95Q600.58 1.95 601.18 2.7L601.18 2.7Q599.78 3.75 599.78 5.75L599.78 5.75Q599.78 7.8 601.13 8.88 602.48 9.95 604.73 9.95L604.73 9.95Q608.98 9.95 611.01 6.88 613.03 3.8 613.03-2.25L613.03-2.25 613.03-5.65Q612.13-2.85 609.98-1.33 607.83 0.2 604.73 0.2L604.73 0.2Q595.88 0.2 595.88-12.4L595.88-12.4Q595.88-18.15 598.41-22.1 600.93-26.05 607.28-26.05L607.28-26.05Q610.08-26.05 612.71-25.28 615.33-24.5 616.98-22.75L616.98-22.75 616.98-2.25Q616.98 11.65 604.58 11.65L604.58 11.65ZM605.78-2Q609.48-2 611.23-5.05 612.98-8.1 613.03-12.4L613.03-12.4 613.08-22.35Q612.23-23.25 610.68-23.73 609.13-24.2 607.23-24.2L607.23-24.2Q603.08-24.2 601.61-20.85 600.13-17.5 600.13-12L600.13-12Q600.13-6.7 601.51-4.35 602.88-2 605.78-2L605.78-2ZM646.98-3.65Q647.53-2.9 647.53-2.1L647.53-2.1Q647.53-1 646.51-0.25 645.48 0.5 644.03 0.5L644.03 0.5Q641.88 0.5 640.78-1 639.68-2.5 639.68-5.7L639.68-5.7 639.68-7.15Q638.03-3.6 635.21-1.53 632.38 0.55 629.03 0.55L629.03 0.55Q626.13 0.55 624.46-1.03 622.78-2.6 622.78-5.25L622.78-5.25Q622.78-8.2 625.03-10.25 627.28-12.3 631.08-13.35L631.08-13.35Q634.43-14.25 638.03-14.25L638.03-14.25Q639.03-14.25 639.48-14.2L639.48-14.2 639.48-15.5Q639.48-19.95 638.01-22.1 636.53-24.25 633.13-24.25L633.13-24.25Q630.93-24.25 629.43-23.3 627.93-22.35 627.93-20.2L627.93-20.2Q627.93-19.05 628.46-18.05 628.98-17.05 630.08-16.65L630.08-16.65Q629.28-15.65 627.68-15.65L627.68-15.65Q626.03-15.65 624.98-16.98 623.93-18.3 623.93-20.05L623.93-20.05Q623.93-22.95 626.48-24.5 629.03-26.05 633.48-26.05L633.48-26.05Q638.63-26.05 641.08-23.4 643.53-20.75 643.53-15.25L643.53-15.25 643.53-5.25Q643.53-2.6 645.33-2.6L645.33-2.6Q645.73-2.6 646.23-2.88 646.73-3.15 646.98-3.65L646.98-3.65ZM630.63-2.25Q632.63-2.25 634.71-3.73 636.78-5.2 638.16-7.6 639.53-10 639.58-12.6L639.58-12.6 638.43-12.65Q636.68-12.65 634.88-12.38 633.08-12.1 631.83-11.6L631.83-11.6Q629.63-10.8 628.38-9.4 627.13-8 627.13-6.1L627.13-6.1Q627.13-4.45 627.98-3.35 628.83-2.25 630.63-2.25L630.63-2.25ZM658.93 11.65Q655.28 11.65 652.85 10.13 650.43 8.6 650.43 5.65L650.43 5.65Q650.43 4 651.3 2.98 652.18 1.95 653.53 1.95L653.53 1.95Q654.93 1.95 655.53 2.7L655.53 2.7Q654.13 3.75 654.13 5.75L654.13 5.75Q654.13 7.8 655.48 8.88 656.83 9.95 659.08 9.95L659.08 9.95Q663.33 9.95 665.35 6.88 667.38 3.8 667.38-2.25L667.38-2.25 667.38-5.65Q666.48-2.85 664.33-1.33 662.18 0.2 659.08 0.2L659.08 0.2Q650.23 0.2 650.23-12.4L650.23-12.4Q650.23-18.15 652.75-22.1 655.28-26.05 661.63-26.05L661.63-26.05Q664.43-26.05 667.05-25.28 669.68-24.5 671.33-22.75L671.33-22.75 671.33-2.25Q671.33 11.65 658.93 11.65L658.93 11.65ZM660.13-2Q663.83-2 665.58-5.05 667.33-8.1 667.38-12.4L667.38-12.4 667.43-22.35Q666.58-23.25 665.03-23.73 663.48-24.2 661.58-24.2L661.58-24.2Q657.43-24.2 655.95-20.85 654.48-17.5 654.48-12L654.48-12Q654.48-6.7 655.85-4.35 657.23-2 660.13-2L660.13-2ZM697.23-6.45Q697.98-6.2 697.98-5.3L697.98-5.3Q697.98-4.8 697.68-3.95L697.68-3.95Q696.73-1.75 694.35-0.55 691.98 0.65 688.78 0.65L688.78 0.65Q683.28 0.65 680.18-2.78 677.08-6.2 677.08-12.55L677.08-12.55Q677.08-18.85 680.15-22.45 683.23-26.05 688.98-26.05L688.98-26.05Q693.13-26.05 695.63-24.18 698.13-22.3 698.13-18.85L698.13-18.85Q698.13-15.15 695.13-13.2 692.13-11.25 686.78-11.25L686.78-11.25Q683.83-11.25 681.38-11.6L681.38-11.6Q681.68-6.55 683.9-4.33 686.13-2.1 689.73-2.1L689.73-2.1Q692.48-2.1 694.48-3.23 696.48-4.35 697.23-6.45L697.23-6.45ZM688.83-24.25Q685.43-24.25 683.4-21.43 681.38-18.6 681.33-13.3L681.33-13.3Q683.73-13.1 685.23-13.05L685.23-13.05Q689.23-13.05 691.55-14.48 693.88-15.9 693.88-19.35L693.88-19.35Q693.88-22 692.43-23.13 690.98-24.25 688.83-24.25L688.83-24.25ZM740.17-5.7Q740.17-2.25 740.82-0.35L740.82-0.35Q739.72 0.55 738.52 0.55L738.52 0.55Q737.52 0.55 736.87-0.05 736.22-0.65 736.22-1.65L736.22-1.65 736.22-15.15Q736.22-19.45 735.17-21.65 734.12-23.85 731.47-23.85L731.47-23.85Q729.87-23.85 728.37-22.7 726.87-21.55 725.85-19.03 724.82-16.5 724.77-12.7L724.77-12.7 724.82-5.7Q724.82-2.1 725.42-0.35L725.42-0.35Q724.42 0.55 723.17 0.55L723.17 0.55Q722.17 0.55 721.57-0.05 720.97-0.65 720.97-1.65L720.97-1.65 720.92-15.15Q720.92-19.6 719.82-21.73 718.72-23.85 716.02-23.85L716.02-23.85Q714.37-23.85 712.9-22.63 711.42-21.4 710.47-18.68 709.52-15.95 709.52-11.75L709.52-11.75Q709.52-5.45 709.62-3.55 709.72-1.65 710.22-0.35L710.22-0.35Q709.17 0.55 707.92 0.55L707.92 0.55Q706.87 0.55 706.25-0.1 705.62-0.75 705.62-1.85L705.62-1.85 705.57-20.25Q705.57-21.55 705.12-22.23 704.67-22.9 703.82-22.9L703.82-22.9Q703.37-22.9 702.92-22.63 702.47-22.35 702.27-21.85L702.27-21.85Q701.72-22.55 701.72-23.4L701.72-23.4Q701.72-24.55 702.62-25.28 703.52-26 704.82-26L704.82-26Q706.87-26 708-24.58 709.12-23.15 709.12-20.45L709.12-20.45 709.12-19.65Q710.12-22.65 712.22-24.35 714.32-26.05 717.17-26.05L717.17-26.05Q723.27-26.05 724.42-19.55L724.42-19.55Q725.32-22.6 727.47-24.33 729.62-26.05 732.57-26.05L732.57-26.05Q736.47-26.05 738.32-23.43 740.17-20.8 740.17-15.65L740.17-15.65 740.17-5.7ZM766.37-6.45Q767.12-6.2 767.12-5.3L767.12-5.3Q767.12-4.8 766.82-3.95L766.82-3.95Q765.87-1.75 763.5-0.55 761.12 0.65 757.92 0.65L757.92 0.65Q752.42 0.65 749.32-2.78 746.22-6.2 746.22-12.55L746.22-12.55Q746.22-18.85 749.3-22.45 752.37-26.05 758.12-26.05L758.12-26.05Q762.27-26.05 764.77-24.18 767.27-22.3 767.27-18.85L767.27-18.85Q767.27-15.15 764.27-13.2 761.27-11.25 755.92-11.25L755.92-11.25Q752.97-11.25 750.52-11.6L750.52-11.6Q750.82-6.55 753.05-4.33 755.27-2.1 758.87-2.1L758.87-2.1Q761.62-2.1 763.62-3.23 765.62-4.35 766.37-6.45L766.37-6.45ZM757.97-24.25Q754.57-24.25 752.55-21.43 750.52-18.6 750.47-13.3L750.47-13.3Q752.87-13.1 754.37-13.05L754.37-13.05Q758.37-13.05 760.7-14.48 763.02-15.9 763.02-19.35L763.02-19.35Q763.02-22 761.57-23.13 760.12-24.25 757.97-24.25L757.97-24.25ZM794.42-5.7Q794.52-1.9 795.07-0.35L795.07-0.35Q794.07 0.55 792.77 0.55L792.77 0.55Q791.72 0.55 791.07-0.05 790.42-0.65 790.42-1.65L790.42-1.65 790.42-15.15Q790.37-19.5 789.19-21.6 788.02-23.7 785.22-23.7L785.22-23.7Q783.47-23.7 781.84-22.5 780.22-21.3 779.17-18.7 778.12-16.1 778.12-12.05L778.12-12.05Q778.12-5.6 778.22-3.65 778.32-1.7 778.82-0.35L778.82-0.35Q777.77 0.55 776.52 0.55L776.52 0.55Q775.47 0.55 774.82-0.1 774.17-0.75 774.17-1.85L774.17-1.85 774.17-20.3Q774.12-21.7 773.79-22.3 773.47-22.9 772.77-22.9L772.77-22.9Q771.82-22.9 771.47-22.1L771.47-22.1Q770.87-22.95 770.87-23.7L770.87-23.7Q770.87-24.75 771.67-25.38 772.47-26 773.87-26L773.87-26Q775.77-26 776.77-24.7 777.77-23.4 777.77-20.85L777.77-20.85 777.77-19.85Q778.82-22.8 781.07-24.43 783.32-26.05 786.37-26.05L786.37-26.05Q794.42-26.05 794.42-15.65L794.42-15.65 794.42-5.7ZM809.07-25.35Q809.87-25.35 811.19-25.4 812.52-25.45 813.32-25.5L813.32-25.5 813.27-24.4Q813.22-23.9 812.92-23.58 812.62-23.25 812.17-23.25L812.17-23.25 807.02-23.25 807.02-21.35 807.02-5.25Q807.02-3.95 807.62-3.25 808.22-2.55 809.42-2.55L809.42-2.55Q810.17-2.55 810.84-2.83 811.52-3.1 811.77-3.6L811.77-3.6Q812.32-2.85 812.32-2L812.32-2Q812.32-0.85 811.12-0.15 809.92 0.55 808.07 0.55L808.07 0.55Q805.72 0.55 804.37-0.93 803.02-2.4 803.02-5L803.02-5 803.02-23.25 802.32-23.25Q800.27-23.25 799.32-23.1L799.32-23.1 799.37-24.25Q799.42-25.35 800.47-25.35L800.47-25.35 803.02-25.35 803.02-29.8Q803.02-30.85 803.67-31.43 804.32-32 805.37-32L805.37-32Q806.62-32 807.67-31.1L807.67-31.1Q807.12-29.4 807.07-25.35L807.07-25.35 809.07-25.35ZM821.91 0.65Q820.81 0.65 820.01-0.15 819.21-0.95 819.21-2.05L819.21-2.05Q819.21-3.2 820.01-3.98 820.81-4.75 821.91-4.75L821.91-4.75Q823.06-4.75 823.84-3.98 824.61-3.2 824.61-2.05L824.61-2.05Q824.61-0.95 823.84-0.15 823.06 0.65 821.91 0.65L821.91 0.65Z" opacity="1" transform="matrix(1,0,0,1,0,0)" fill="#49beb7" class="slogan-text-1" data-fill-palette-color="secondary" id="text-1"></path></svg></g></svg></g></svg></g></svg></g><g><svg viewBox="0 0 168.06328856928704 168.06328856928704" height="168.06328856928704" width="168.06328856928704"><g><svg></svg></g><g id="icon-0"><svg viewBox="0 0 168.06328856928704 168.06328856928704" height="168.06328856928704" width="168.06328856928704"><g><path d="M0 84.032c0-46.409 37.622-84.032 84.032-84.032 46.409 0 84.032 37.622 84.031 84.032 0 46.409-37.622 84.032-84.031 84.031-46.409 0-84.032-37.622-84.032-84.031zM84.032 162.335c43.246 0 78.303-35.057 78.303-78.303 0-43.246-35.057-78.303-78.303-78.303-43.246 0-78.303 35.057-78.303 78.303 0 43.246 35.057 78.303 78.303 78.303z" data-fill-palette-color="accent" fill="#49beb7" stroke="transparent"></path></g><g transform="matrix(1,0,0,1,35.55136889468615,38.58744614098223)"><svg viewBox="0 0 96.96055077991474 90.88839628732258" height="90.88839628732258" width="96.96055077991474"><g><svg xmlns="http://www.w3.org/2000/svg" xmlns:xlink="http://www.w3.org/1999/xlink" version="1.1" x="0" y="0" viewBox="0 1 32 29.996" enable-background="new 0 0 32 32" xml:space="preserve" height="90.88839628732258" width="96.96055077991474" class="icon-cg-0" data-fill-palette-color="accent" id="cg-0"><g fill="#49beb7" data-fill-palette-color="accent"><path fill="#49beb7" d="M27 4.996L5 5C4.447 5 4 5.443 4 5.996v14c0 0.553 0.447 1 1 1h22c0.553 0 1-0.447 1-1v-14C28 5.443 27.553 4.996 27 4.996zM27 20H5V5.996h22V20z" data-fill-palette-color="accent"></path><path fill="#49beb7" d="M29 1H3C1.343 1 0 2.342 0 4v20c0 1.654 1.338 2.994 2.99 2.998H13v1.217l-6.242 0.811C6.312 29.137 6 29.537 6 29.996c0 0.553 0.447 1 1 1h18c0.553 0 1-0.447 1-1 0-0.459-0.312-0.859-0.758-0.971L19 28.215v-1.217h10.01C30.662 26.994 32 25.654 32 24V4C32 2.342 30.656 1 29 1zM30 24c0 0.551-0.449 1-1 1h-9-8H3c-0.552 0-1-0.449-1-1V4c0-0.552 0.448-1 1-1h26c0.551 0 1 0.448 1 1V24z" data-fill-palette-color="accent"></path></g></svg></g></svg></g></svg></g></svg></g></svg></g><defs></defs></svg><rect width="395.52" height="111.98636007453244" fill="none" stroke="none" visibility="hidden"></rect></g></svg></g></svg>